<svg width="48" height="48" viewBox="0 0 48 48" fill="none" xmlns="http://www.w3.org/2000/svg">
<g clip-path="url(#clip0_83_11)">
<path fill-rule="evenodd" clip-rule="evenodd" d="M24 8C19.7565 8 15.6869 9.68571 12.6863 12.6863C9.68571 15.6869 8 19.7565 8 24C8 28.2435 9.68571 32.3131 12.6863 35.3137C15.6869 38.3143 19.7565 40 24 40C28.2435 40 32.3131 38.3143 35.3137 35.3137C38.3143 32.3131 40 28.2435 40 24C40 19.7565 38.3143 15.6869 35.3137 12.6863C32.3131 9.68571 28.2435 8 24 8ZM4 24C4 12.954 12.954 4 24 4C35.046 4 44 12.954 44 24C44 35.046 35.046 44 24 44C12.954 44 4 35.046 4 24ZM24 33.172L23.414 32.586C23.0368 32.2217 22.5316 32.0201 22.0072 32.0247C21.4828 32.0292 20.9812 32.2395 20.6104 32.6104C20.2395 32.9812 20.0292 33.4828 20.0247 34.0072C20.0201 34.5316 20.2217 35.0368 20.586 35.414L22.586 37.414C22.9611 37.7889 23.4697 37.9996 24 37.9996C24.5303 37.9996 25.0389 37.7889 25.414 37.414L27.414 35.414C27.7783 35.0368 27.9799 34.5316 27.9753 34.0072C27.9708 33.4828 27.7605 32.9812 27.3896 32.6104C27.0188 32.2395 26.5172 32.0292 25.9928 32.0247C25.4684 32.0201 24.9632 32.2217 24.586 32.586L24 33.172ZM15.414 23.414L14.828 24L15.414 24.586C15.605 24.7705 15.7574 24.9912 15.8622 25.2352C15.967 25.4792 16.0222 25.7416 16.0245 26.0072C16.0268 26.2728 15.9762 26.5361 15.8756 26.7819C15.7751 27.0277 15.6266 27.251 15.4388 27.4388C15.251 27.6266 15.0277 27.7751 14.7819 27.8756C14.5361 27.9762 14.2728 28.0268 14.0072 28.0245C13.7416 28.0222 13.4792 27.967 13.2352 27.8622C12.9912 27.7574 12.7705 27.605 12.586 27.414L10.586 25.414C10.2111 25.0389 10.0004 24.5303 10.0004 24C10.0004 23.4697 10.2111 22.9611 10.586 22.586L12.586 20.586C12.7705 20.395 12.9912 20.2426 13.2352 20.1378C13.4792 20.033 13.7416 19.9778 14.0072 19.9755C14.2728 19.9732 14.5361 20.0238 14.7819 20.1244C15.0277 20.2249 15.251 20.3734 15.4388 20.5612C15.6266 20.749 15.7751 20.9723 15.8756 21.2181C15.9762 21.4639 16.0268 21.7272 16.0245 21.9928C16.0222 22.2584 15.967 22.5208 15.8622 22.7648C15.7574 23.0088 15.605 23.2295 15.414 23.414ZM24 14.828L23.414 15.414C23.2295 15.605 23.0088 15.7574 22.7648 15.8622C22.5208 15.967 22.2584 16.0222 21.9928 16.0245C21.7272 16.0268 21.4639 15.9762 21.2181 15.8756C20.9723 15.7751 20.749 15.6266 20.5612 15.4388C20.3734 15.251 20.2249 15.0277 20.1244 14.7819C20.0238 14.5361 19.9732 14.2728 19.9755 14.0072C19.9778 13.7416 20.033 13.4792 20.1378 13.2352C20.2426 12.9912 20.395 12.7705 20.586 12.586L22.586 10.586C22.9611 10.2111 23.4697 10.0004 24 10.0004C24.5303 10.0004 25.0389 10.2111 25.414 10.586L27.414 12.586C27.7783 12.9632 27.9799 13.4684 27.9753 13.9928C27.9708 14.5172 27.7605 15.0188 27.3896 15.3896C27.0188 15.7605 26.5172 15.9708 25.9928 15.9753C25.4684 15.9799 24.9632 15.7783 24.586 15.414L24 14.828ZM35.414 20.586L37.414 22.586C37.7889 22.9611 37.9996 23.4697 37.9996 24C37.9996 24.5303 37.7889 25.0389 37.414 25.414L35.414 27.414C35.0368 27.7783 34.5316 27.9799 34.0072 27.9753C33.4828 27.9708 32.9812 27.7605 32.6104 27.3896C32.2395 27.0188 32.0292 26.5172 32.0247 25.9928C32.0201 25.4684 32.2217 24.9632 32.586 24.586L33.172 24L32.586 23.414C32.2217 23.0368 32.0201 22.5316 32.0247 22.0072C32.0292 21.4828 32.2395 20.9812 32.6104 20.6104C32.9812 20.2395 33.4828 20.0292 34.0072 20.0247C34.5316 20.0201 35.0368 20.2217 35.414 20.586Z" fill="#FFFACD"/>
</g>
<defs>
<clipPath id="clip0_83_11">
<rect width="48" height="48" fill="white"/>
</clipPath>
</defs>
</svg>
