<svg width="18" height="18" viewBox="0 0 18 18" fill="none" xmlns="http://www.w3.org/2000/svg">
<path d="M13.7812 0H4.21875C1.8888 0 0 1.8888 0 4.21875V13.7812C0 16.1112 1.8888 18 4.21875 18H13.7812C16.1112 18 18 16.1112 18 13.7812V4.21875C18 1.8888 16.1112 0 13.7812 0Z" fill="#FF4500"/>
<mask id="mask0_57_236" style="mask-type:luminance" maskUnits="userSpaceOnUse" x="1" y="3" width="16" height="12">
<path d="M1.96875 3.58594H16.0312V14.4795H1.96875V3.58594Z" fill="white"/>
</mask>
<g mask="url(#mask0_57_236)">
<path d="M13.8732 4.55604C12.9615 4.13753 11.9994 3.83909 11.0109 3.66821C11.0019 3.66654 10.9926 3.66776 10.9844 3.67167C10.9761 3.67558 10.9693 3.682 10.9649 3.69C10.8413 3.9098 10.7043 4.19667 10.6085 4.4221C9.52756 4.26024 8.45227 4.26024 7.39357 4.4221C7.29767 4.19161 7.15578 3.9098 7.0316 3.69C7.02701 3.68216 7.02016 3.67589 7.01194 3.672C7.00372 3.66811 6.99453 3.66679 6.98555 3.66821C5.99696 3.83875 5.03477 4.1372 4.1232 4.55604C4.1154 4.55935 4.10881 4.565 4.10435 4.57221C2.28129 7.29584 1.78193 9.95253 2.0269 12.5763C2.02758 12.5827 2.02955 12.589 2.03269 12.5946C2.03583 12.6003 2.04008 12.6052 2.04518 12.6092C3.24795 13.4925 4.4131 14.0288 5.55659 14.3843C5.56548 14.3869 5.57498 14.3868 5.5838 14.3839C5.59262 14.381 5.60035 14.3755 5.60595 14.3681C5.87644 13.9987 6.11754 13.6092 6.32433 13.1996C6.32718 13.194 6.3288 13.1879 6.3291 13.1816C6.3294 13.1753 6.32836 13.169 6.32606 13.1632C6.32375 13.1573 6.32023 13.152 6.31573 13.1476C6.31122 13.1432 6.30584 13.1398 6.29993 13.1377C5.91743 12.9926 5.55328 12.8157 5.20299 12.6148C5.19661 12.6111 5.19125 12.6058 5.18739 12.5995C5.18352 12.5932 5.18127 12.586 5.18084 12.5786C5.1804 12.5712 5.18179 12.5638 5.18488 12.5571C5.18797 12.5504 5.19267 12.5445 5.19856 12.54C5.27245 12.4848 5.34508 12.4279 5.41639 12.3693C5.42263 12.3641 5.43019 12.3608 5.43821 12.3597C5.44624 12.3586 5.45441 12.3598 5.46181 12.3631C7.76328 13.4139 10.2548 13.4139 12.5291 12.3631C12.5365 12.3596 12.5447 12.3583 12.5529 12.3593C12.5611 12.3603 12.5688 12.3635 12.5751 12.3687C12.6465 12.4276 12.7193 12.4847 12.7935 12.54C12.7994 12.5445 12.8042 12.5503 12.8073 12.557C12.8104 12.5637 12.8119 12.5711 12.8115 12.5785C12.8111 12.5859 12.8089 12.593 12.8051 12.5994C12.8013 12.6057 12.796 12.611 12.7896 12.6148C12.4391 12.8195 12.072 12.9942 11.6921 13.1371C11.6862 13.1394 11.6809 13.1428 11.6764 13.1473C11.6719 13.1518 11.6685 13.1571 11.6662 13.163C11.664 13.1689 11.663 13.1753 11.6634 13.1816C11.6637 13.1879 11.6654 13.194 11.6683 13.1996C11.8787 13.606 12.1186 13.9963 12.386 14.3675C12.3915 14.3751 12.3992 14.3808 12.408 14.3838C12.4169 14.3868 12.4265 14.387 12.4354 14.3843C13.5844 14.0288 14.7496 13.4925 15.9524 12.6092C15.9576 12.6054 15.9619 12.6006 15.965 12.595C15.9682 12.5894 15.9701 12.5832 15.9707 12.5769C16.2639 9.54352 15.4796 6.90856 13.8915 4.57278C13.8876 4.56519 13.8811 4.55925 13.8732 4.55604ZM6.66802 10.9787C5.97509 10.9787 5.40415 10.3426 5.40415 9.56138C5.40415 8.78014 5.96405 8.14402 6.66802 8.14402C7.37747 8.14402 7.94285 8.78576 7.93175 9.56138C7.93175 10.3426 7.37192 10.9787 6.66802 10.9787ZM11.3407 10.9787C10.6478 10.9787 10.0769 10.3426 10.0769 9.56138C10.0769 8.78014 10.6367 8.14402 11.3407 8.14402C12.0502 8.14402 12.6155 8.78576 12.6045 9.56138C12.6045 10.3426 12.0502 10.9787 11.3407 10.9787Z" fill="white"/>
</g>
</svg>
