<svg width="48" height="48" viewBox="0 0 48 48" fill="none" xmlns="http://www.w3.org/2000/svg">
<path d="M33.1816 14.8185C32.3377 13.9749 31.1933 13.501 30.0001 13.501C28.8068 13.501 27.6624 13.9749 26.8186 14.8185L26.1211 15.5145L28.2421 17.6355L28.9396 16.9395C29.2225 16.6663 29.6014 16.5151 29.9947 16.5185C30.388 16.5219 30.7642 16.6797 31.0423 16.9578C31.3204 17.2359 31.4782 17.6121 31.4816 18.0054C31.485 18.3987 31.3338 18.7776 31.0606 19.0605L26.1211 24L28.2421 26.121L33.1816 21.1815C34.0252 20.3376 34.4991 19.1933 34.4991 18C34.4991 16.8068 34.0252 15.6624 33.1816 14.8185ZM19.0606 31.0605C18.7777 31.3338 18.3988 31.4849 18.0055 31.4815C17.6122 31.4781 17.2359 31.3204 16.9578 31.0422C16.6797 30.7641 16.522 30.3879 16.5186 29.9946C16.5151 29.6013 16.6663 29.2224 16.9396 28.9395L21.8791 24L19.7581 21.879L14.8186 26.8185C14.3888 27.2336 14.0459 27.7302 13.8101 28.2792C13.5743 28.8282 13.4501 29.4187 13.4449 30.0162C13.4397 30.6137 13.5536 31.2063 13.7799 31.7593C14.0061 32.3123 14.3403 32.8148 14.7628 33.2373C15.1853 33.6598 15.6877 33.994 16.2408 34.2202C16.7938 34.4465 17.3864 34.5603 17.9839 34.5551C18.5814 34.55 19.1719 34.4258 19.7209 34.19C20.2699 33.9541 20.7665 33.6113 21.1816 33.1815L21.8791 32.4855L19.7581 30.3645L19.0606 31.0605ZM21.1816 14.82C20.3294 14.0202 19.1995 13.5832 18.0309 13.6017C16.8623 13.6201 15.7468 14.0924 14.9203 14.9187C14.0938 15.7451 13.6211 16.8605 13.6024 18.0291C13.5837 19.1977 14.0204 20.3277 14.8201 21.18L15.5161 21.8775L17.6371 19.7565L16.9411 19.059C16.6678 18.7761 16.5166 18.3972 16.52 18.0039C16.5235 17.6106 16.6812 17.2344 16.9593 16.9563C17.2374 16.6782 17.6137 16.5204 18.007 16.517C18.4003 16.5136 18.7792 16.6648 19.0621 16.938L24.0001 21.879L26.1211 19.758L21.1816 14.82Z" fill="#8B0000"/>
<path d="M33.1816 26.8185L32.4856 26.121L30.3646 28.242L31.0606 28.9395C31.3338 29.2224 31.485 29.6013 31.4816 29.9946C31.4782 30.3879 31.3204 30.7641 31.0423 31.0422C30.7642 31.3203 30.388 31.4781 29.9947 31.4815C29.6014 31.4849 29.2225 31.3337 28.9396 31.0605L24.0001 26.121L21.8791 28.242L26.8186 33.1815C27.6673 34.0012 28.804 34.4548 29.9839 34.4445C31.1637 34.4343 32.2924 33.961 33.1267 33.1267C33.9611 32.2923 34.4343 31.1637 34.4446 29.9838C34.4548 28.8039 34.0013 27.6672 33.1816 26.8185Z" fill="#8B0000"/>
<path d="M24.0001 46.5C23.7344 46.5002 23.4736 46.4298 23.2441 46.296L5.24406 35.796C5.01759 35.6639 4.82972 35.4747 4.69918 35.2473C4.56864 35.0199 4.49998 34.7622 4.50006 34.5V13.5C4.49998 13.2378 4.56864 12.9802 4.69918 12.7528C4.82972 12.5254 5.01759 12.3362 5.24406 12.204L23.2441 1.70402C23.4735 1.57013 23.7344 1.49957 24.0001 1.49957C24.2657 1.49957 24.5266 1.57013 24.7561 1.70402L42.7561 12.204L41.2441 14.796L24.0001 4.73702L7.50006 14.361V33.639L24.0001 43.2645L40.5001 33.639V22.5H43.5001V34.5C43.5001 34.7622 43.4315 35.0199 43.3009 35.2473C43.1704 35.4747 42.9825 35.6639 42.7561 35.796L24.7561 46.296C24.5266 46.4298 24.2657 46.5002 24.0001 46.5Z" fill="#8B0000"/>
</svg>
