<svg width="48" height="48" viewBox="0 0 48 48" fill="none" xmlns="http://www.w3.org/2000/svg">
<g clip-path="url(#clip0_83_16)">
<path d="M4.6243e-06 19.5C-0.00303311 15.0874 1.49065 10.8041 4.23697 7.35027C6.98329 3.89641 10.8199 1.47612 15.1197 0.48491C19.4196 -0.506298 23.9286 -0.00981754 27.9097 1.89322C31.8909 3.79626 35.109 6.99333 37.038 10.962C39.8303 12.3232 42.2569 14.3318 44.1159 16.8205C45.9749 19.3093 47.2124 22.2061 47.7254 25.2699C48.2384 28.3336 48.012 31.4755 47.0651 34.4341C46.1182 37.3926 44.4783 40.0822 42.2817 42.2787C40.0852 44.4752 37.3956 46.1152 34.4371 47.0621C31.4785 48.009 28.3366 48.2354 25.2729 47.7224C22.2091 47.2094 19.3123 45.9719 16.8235 44.1129C14.3348 42.2539 12.3262 39.8273 10.965 37.035C7.67698 35.4344 4.9053 32.9415 2.96642 29.8409C1.02755 26.7402 -0.000382809 23.1569 4.6243e-06 19.5ZM15.432 38.574C16.8642 40.4314 18.6759 41.9621 20.7463 43.0641C22.8167 44.166 25.0983 44.8139 27.4389 44.9646C29.7795 45.1152 32.1253 44.7651 34.3199 43.9377C36.5145 43.1102 38.5074 41.8244 40.1659 40.1659C41.8244 38.5074 43.1102 36.5145 43.9377 34.3199C44.7651 32.1253 45.1152 29.7795 44.9646 27.4389C44.8139 25.0983 44.166 22.8167 43.0641 20.7463C41.9621 18.6759 40.4314 16.8642 38.574 15.432C39.2533 18.6133 39.1259 21.914 38.2034 25.0335C37.2809 28.153 35.5927 30.9922 33.2925 33.2925C30.9922 35.5927 28.1531 37.2809 25.0335 38.2034C21.914 39.1259 18.6133 39.2533 15.432 38.574ZM13.233 34.767C14.325 35.219 15.469 35.549 16.665 35.757L12.243 31.335C12.451 32.529 12.781 33.673 13.233 34.767ZM21.075 35.925C22.2709 35.8118 23.4509 35.5684 24.594 35.199L13.122 23.73C12.7187 24.8168 12.4213 25.94 12.234 27.084L21.075 35.925ZM27.546 33.909C28.438 33.409 29.276 32.833 30.06 32.181L16.254 18.378C15.5982 19.1529 15.0091 19.9818 14.493 20.856L27.546 33.909ZM32.181 30.057C32.831 29.277 33.407 28.44 33.909 27.546L20.859 14.49C19.9838 15.0059 19.1538 15.595 18.378 16.251L32.178 30.057H32.181ZM35.199 24.591C35.565 23.467 35.807 22.295 35.925 21.075L27.084 12.234C25.924 12.426 24.806 12.722 23.73 13.122L35.199 24.594V24.591ZM35.757 16.665C35.5522 15.4885 35.2202 14.3378 34.767 13.233C33.6622 12.7798 32.5115 12.4478 31.335 12.243L35.757 16.665Z" fill="#FFFACD"/>
</g>
<defs>
<clipPath id="clip0_83_16">
<rect width="48" height="48" fill="white"/>
</clipPath>
</defs>
</svg>
